<mxfile host="app.diagrams.net" modified="2025-02-13T16:19:32.687Z" agent="Mozilla/5.0 (Windows NT 10.0; Win64; x64) AppleWebKit/537.36 (KHTML, like Gecko) Chrome/132.0.0.0 Safari/537.36" version="24.2.7" etag="7MPB-osO54d6YoxJLWy9" type="github">
  <diagram name="Page-1" id="aA9Qk1lZxE92sEQ_ZznC">
    <mxGraphModel>
      <root>
        <mxCell id="0" />
        <mxCell id="1" parent="0" />
      </root>
    </mxGraphModel>
  </diagram>
</mxfile>
